<svg width="1200" height="320" viewBox="0 0 1200 320" fill="none" xmlns="http://www.w3.org/2000/svg">
  <defs>
    <linearGradient id="qintra-ring" x1="26" y1="24" x2="250" y2="250" gradientUnits="userSpaceOnUse">
      <stop offset="0" stop-color="#8EE7F0"/>
      <stop offset="0.38" stop-color="#46A9F4"/>
      <stop offset="0.7" stop-color="#3257E7"/>
      <stop offset="1" stop-color="#2A2BB8"/>
    </linearGradient>
    <linearGradient id="qintra-tail" x1="162" y1="126" x2="240" y2="232" gradientUnits="userSpaceOnUse">
      <stop offset="0" stop-color="#6FDFF6"/>
      <stop offset="1" stop-color="#3053E4"/>
    </linearGradient>
    <linearGradient id="qintra-tagline" x1="440" y1="242" x2="1010" y2="242" gradientUnits="userSpaceOnUse">
      <stop offset="0" stop-color="#A4AEC2"/>
      <stop offset="0.5" stop-color="#7682A2"/>
      <stop offset="1" stop-color="#A4AEC2"/>
    </linearGradient>
    <filter id="qintra-shadow" x="0" y="0" width="320" height="320" filterUnits="userSpaceOnUse" color-interpolation-filters="sRGB">
      <feDropShadow dx="0" dy="14" stdDeviation="12" flood-color="#3156E3" flood-opacity="0.16"/>
    </filter>
  </defs>

  <g filter="url(#qintra-shadow)" transform="translate(14 16)">
    <path d="M145 22C212.3 22 268 77.7 268 145C268 212.3 212.3 268 145 268C85.1 268 34.6 224.9 24.1 167.8C22.1 157 30.7 147 41.7 147H80.6C88.7 147 95.7 152.5 98.3 160.2C105.8 182.7 124 198.9 145 198.9C174.8 198.9 198.9 174.8 198.9 145C198.9 115.2 174.8 91.1 145 91.1C123.9 91.1 105.6 107.5 98.1 130.2C95.6 137.8 88.6 143 80.6 143H41.6C30.5 143 21.8 132.9 24 122C34.3 64.8 84.9 22 145 22Z" fill="url(#qintra-ring)"/>
    <path d="M170 147.5L252 111.5C260.8 107.6 270 116.2 266 125L229.6 205.1C226.1 212.8 216.9 214.7 210.8 209L170 170.7V147.5Z" fill="url(#qintra-tail)"/>
    <path d="M161.5 162.4L236.8 197.1C244.8 200.8 246.9 211.2 241 217.7L215.2 246.2C209.9 252.1 200.8 252.8 194.5 247.8L154.8 216.4C149.6 212.3 146.5 206.1 146.5 199.4V176.8C146.5 165.6 151.4 157.8 161.5 162.4Z" fill="#335AE4" opacity="0.94"/>
  </g>

  <g transform="translate(328 84)">
    <text x="0" y="84" font-size="96" font-weight="800" fill="#16203A" font-family="'Noto Sans SC','Microsoft YaHei','PingFang SC',sans-serif">轻创 Qintra</text>
    <line x1="12" y1="176" x2="150" y2="176" stroke="url(#qintra-tagline)" stroke-width="4" stroke-linecap="round"/>
    <line x1="730" y1="176" x2="868" y2="176" stroke="url(#qintra-tagline)" stroke-width="4" stroke-linecap="round"/>
    <text x="192" y="192" font-size="64" font-weight="500" fill="#6F7B98" font-family="'STKaiti','KaiTi','Noto Serif SC','Songti SC',serif">让便捷融入生活</text>
  </g>
</svg>
